<svg viewBox="0 0 698 698" fill="none" xmlns="http://www.w3.org/2000/svg"><path opacity=".5" d="M349 698c192.75 0 349-156.25 349-349S541.75 0 349 0 0 156.25 0 349s156.25 349 349 349z" fill="url(#paint0_linear)"/><path d="M349.68 688.41c188.68 0 341.64-152.96 341.64-341.64 0-188.68-152.96-341.64-341.64-341.64C161 5.13 8.04 158.09 8.04 346.77c0 188.68 152.96 341.64 341.64 341.64z" fill="#F5F5F5"/><path d="M350 689.76a340 340 0 0 0 187.79-56.2c-12.59-68.8-60.5-72.72-60.5-72.72h-264.2s-45.21 3.71-59.33 67A340.07 340.07 0 0 0 350 689.76z" fill="#6C63FF"/><path d="M346.37 504.47c91.07 0 164.9-73.83 164.9-164.9 0-91.07-73.83-164.9-164.9-164.9-91.07 0-164.9 73.83-164.9 164.9 0 91.07 73.83 164.9 164.9 164.9z" fill="#333"/><path opacity=".1" d="M293.15 476.92h105.66v84.53A52.83 52.83 0 0 1 346 614.28a52.83 52.83 0 0 1-52.83-52.83v-84.53h-.02z" fill="#000"/><path d="M296.5 473h99a3.35 3.35 0 0 1 3.35 3.35v81.18A52.85 52.85 0 0 1 346 610.37a52.83 52.83 0 0 1-52.83-52.83v-81.19a3.35 3.35 0 0 1 3.33-3.35z" fill="#FDB797"/><path opacity=".1" d="M293.34 516.82a152.07 152.07 0 0 0 105.66.29v-13H293.34v12.71z" fill="#000"/><path d="M346.37 523.89c83.64 0 151.45-67.8 151.45-151.45 0-83.64-67.8-151.45-151.45-151.45-83.64 0-151.45 67.8-151.45 151.45 0 83.64 67.8 151.45 151.45 151.45z" fill="#FDB797"/><path opacity=".1" d="M238.49 234.68S302.32 364.24 482.37 289l-41.92-65.73-74.31-26.67-127.65 38.08z" fill="#000"/><path d="M238.49 232.78s63.83 129.56 243.88 54.3l-41.92-65.73-74.31-26.67-127.65 38.1z" fill="#333"/><path d="M237.93 224a87.49 87.49 0 0 1 21.69-35.27c29.79-29.45 78.63-35.66 103.68-69.24 6 9.32 1.36 23.65-9 27.65 24-.16 51.81-2.26 65.38-22a44.9 44.9 0 0 1-7.57 47.4c21.27 1 44 15.4 45.34 36.65.92 14.16-8 27.56-19.59 35.68-11.59 8.12-25.71 11.85-39.56 14.9-40.44 8.93-186.76 46.3-160.37-35.77z" fill="#333"/><path d="M194.86 398.72c7.78 0 14.09-11.83 14.09-26.42 0-14.6-6.3-26.42-14.09-26.42-7.78 0-14.09 11.83-14.09 26.42 0 14.6 6.3 26.42 14.09 26.42zM497.8 398.72c7.78 0 14.09-11.83 14.09-26.42 0-14.6-6.3-26.42-14.09-26.42-7.78 0-14.09 11.83-14.09 26.42 0 14.6 6.3 26.42 14.09 26.42z" fill="#FDB797"/><path d="M403.59 448c0 3.13-25.36 39.5-56.71 39.5S293.09 448 293.09 448s22.44 16.88 53.79 16.88c31.35 0 56.71-16.88 56.71-16.88z" fill="#5D5858"/><defs><linearGradient id="paint0_linear" x2="1" gradientUnits="userSpaceOnUse" gradientTransform="matrix(0 -698 698 0 0 698)"><stop stop-color="gray" stop-opacity=".25"/><stop offset=".54" stop-color="gray" stop-opacity=".12"/><stop offset="1" stop-color="gray" stop-opacity=".1"/></linearGradient></defs></svg>