<svg width="174" height="219" viewBox="0 0 174 219" fill="none" xmlns="http://www.w3.org/2000/svg">
<g filter="url(#filter0_d)">
<path d="M150 75C150 116.421 75 194.5 75 194.5C75 194.5 0 116.421 0 75C0 33.5786 33.5786 0 75 0C116.421 0 150 33.5786 150 75Z" transform="translate(6)" fill="#60BCFF"/>
</g>
<path d="M33.8114 21.448C34.5314 21.676 35.0954 22.06 35.5034 22.6C35.9114 23.128 36.1154 23.782 36.1154 24.562C36.1154 25.666 35.6834 26.518 34.8194 27.118C33.9674 27.706 32.7194 28 31.0754 28H24.5594V15.4H30.7154C32.2514 15.4 33.4274 15.694 34.2434 16.282C35.0714 16.87 35.4854 17.668 35.4854 18.676C35.4854 19.288 35.3354 19.834 35.0354 20.314C34.7474 20.794 34.3394 21.172 33.8114 21.448ZM27.4574 17.596V20.566H30.3554C31.0754 20.566 31.6214 20.44 31.9934 20.188C32.3654 19.936 32.5514 19.564 32.5514 19.072C32.5514 18.58 32.3654 18.214 31.9934 17.974C31.6214 17.722 31.0754 17.596 30.3554 17.596H27.4574ZM30.8594 25.804C31.6274 25.804 32.2034 25.678 32.5874 25.426C32.9834 25.174 33.1814 24.784 33.1814 24.256C33.1814 23.212 32.4074 22.69 30.8594 22.69H27.4574V25.804H30.8594ZM47.6111 23.194C47.6111 23.23 47.5931 23.482 47.5571 23.95H40.2311C40.3631 24.55 40.6751 25.024 41.1671 25.372C41.6591 25.72 42.2711 25.894 43.0031 25.894C43.5071 25.894 43.9511 25.822 44.3351 25.678C44.7311 25.522 45.0971 25.282 45.4331 24.958L46.9271 26.578C46.0151 27.622 44.6831 28.144 42.9311 28.144C41.8391 28.144 40.8731 27.934 40.0331 27.514C39.1931 27.082 38.5451 26.488 38.0891 25.732C37.6331 24.976 37.4051 24.118 37.4051 23.158C37.4051 22.21 37.6271 21.358 38.0711 20.602C38.5271 19.834 39.1451 19.24 39.9251 18.82C40.7171 18.388 41.5991 18.172 42.5711 18.172C43.5191 18.172 44.3771 18.376 45.1451 18.784C45.9131 19.192 46.5131 19.78 46.9451 20.548C47.3891 21.304 47.6111 22.186 47.6111 23.194ZM42.5891 20.296C41.9531 20.296 41.4191 20.476 40.9871 20.836C40.5551 21.196 40.2911 21.688 40.1951 22.312H44.9651C44.8691 21.7 44.6051 21.214 44.1731 20.854C43.7411 20.482 43.2131 20.296 42.5891 20.296ZM52.7386 28.144C51.9346 28.144 51.1486 28.048 50.3806 27.856C49.6126 27.652 49.0006 27.4 48.5446 27.1L49.4806 25.084C49.9126 25.36 50.4346 25.588 51.0466 25.768C51.6586 25.936 52.2586 26.02 52.8466 26.02C54.0346 26.02 54.6286 25.726 54.6286 25.138C54.6286 24.862 54.4666 24.664 54.1426 24.544C53.8186 24.424 53.3206 24.322 52.6486 24.238C51.8566 24.118 51.2026 23.98 50.6866 23.824C50.1706 23.668 49.7206 23.392 49.3366 22.996C48.9646 22.6 48.7786 22.036 48.7786 21.304C48.7786 20.692 48.9526 20.152 49.3006 19.684C49.6606 19.204 50.1766 18.832 50.8486 18.568C51.5326 18.304 52.3366 18.172 53.2606 18.172C53.9446 18.172 54.6226 18.25 55.2946 18.406C55.9786 18.55 56.5426 18.754 56.9866 19.018L56.0506 21.016C55.1986 20.536 54.2686 20.296 53.2606 20.296C52.6606 20.296 52.2106 20.38 51.9106 20.548C51.6106 20.716 51.4606 20.932 51.4606 21.196C51.4606 21.496 51.6226 21.706 51.9466 21.826C52.2706 21.946 52.7866 22.06 53.4946 22.168C54.2866 22.3 54.9346 22.444 55.4386 22.6C55.9426 22.744 56.3806 23.014 56.7526 23.41C57.1246 23.806 57.3106 24.358 57.3106 25.066C57.3106 25.666 57.1306 26.2 56.7706 26.668C56.4106 27.136 55.8826 27.502 55.1866 27.766C54.5026 28.018 53.6866 28.144 52.7386 28.144ZM65.2891 27.532C65.0131 27.736 64.6711 27.892 64.2631 28C63.8671 28.096 63.4471 28.144 63.0031 28.144C61.8511 28.144 60.9571 27.85 60.3211 27.262C59.6971 26.674 59.3851 25.81 59.3851 24.67V20.692H57.8911V18.532H59.3851V16.174H62.1931V18.532H64.6051V20.692H62.1931V24.634C62.1931 25.042 62.2951 25.36 62.4991 25.588C62.7151 25.804 63.0151 25.912 63.3991 25.912C63.8431 25.912 64.2211 25.792 64.5331 25.552L65.2891 27.532ZM80.189 28L77.759 24.49H77.615H75.077V28H72.161V15.4H77.615C78.731 15.4 79.697 15.586 80.513 15.958C81.341 16.33 81.977 16.858 82.421 17.542C82.865 18.226 83.087 19.036 83.087 19.972C83.087 20.908 82.859 21.718 82.403 22.402C81.959 23.074 81.323 23.59 80.495 23.95L83.321 28H80.189ZM80.135 19.972C80.135 19.264 79.907 18.724 79.451 18.352C78.995 17.968 78.329 17.776 77.453 17.776H75.077V22.168H77.453C78.329 22.168 78.995 21.976 79.451 21.592C79.907 21.208 80.135 20.668 80.135 19.972ZM89.8073 28.144C88.7873 28.144 87.8693 27.934 87.0533 27.514C86.2493 27.082 85.6193 26.488 85.1633 25.732C84.7073 24.976 84.4793 24.118 84.4793 23.158C84.4793 22.198 84.7073 21.34 85.1633 20.584C85.6193 19.828 86.2493 19.24 87.0533 18.82C87.8693 18.388 88.7873 18.172 89.8073 18.172C90.8273 18.172 91.7393 18.388 92.5433 18.82C93.3473 19.24 93.9773 19.828 94.4333 20.584C94.8893 21.34 95.1173 22.198 95.1173 23.158C95.1173 24.118 94.8893 24.976 94.4333 25.732C93.9773 26.488 93.3473 27.082 92.5433 27.514C91.7393 27.934 90.8273 28.144 89.8073 28.144ZM89.8073 25.84C90.5273 25.84 91.1153 25.6 91.5713 25.12C92.0393 24.628 92.2733 23.974 92.2733 23.158C92.2733 22.342 92.0393 21.694 91.5713 21.214C91.1153 20.722 90.5273 20.476 89.8073 20.476C89.0873 20.476 88.4933 20.722 88.0253 21.214C87.5573 21.694 87.3233 22.342 87.3233 23.158C87.3233 23.974 87.5573 24.628 88.0253 25.12C88.4933 25.6 89.0873 25.84 89.8073 25.84ZM106.75 18.316V28H104.086V26.848C103.714 27.268 103.27 27.592 102.754 27.82C102.238 28.036 101.68 28.144 101.08 28.144C99.8082 28.144 98.8002 27.778 98.0562 27.046C97.3122 26.314 96.9402 25.228 96.9402 23.788V18.316H99.7482V23.374C99.7482 24.934 100.402 25.714 101.71 25.714C102.382 25.714 102.922 25.498 103.33 25.066C103.738 24.622 103.942 23.968 103.942 23.104V18.316H106.75ZM115.598 27.532C115.322 27.736 114.98 27.892 114.572 28C114.176 28.096 113.756 28.144 113.312 28.144C112.16 28.144 111.266 27.85 110.63 27.262C110.006 26.674 109.694 25.81 109.694 24.67V20.692H108.2V18.532H109.694V16.174H112.502V18.532H114.914V20.692H112.502V24.634C112.502 25.042 112.604 25.36 112.808 25.588C113.024 25.804 113.324 25.912 113.708 25.912C114.152 25.912 114.53 25.792 114.842 25.552L115.598 27.532ZM126.361 23.194C126.361 23.23 126.343 23.482 126.307 23.95H118.981C119.113 24.55 119.425 25.024 119.917 25.372C120.409 25.72 121.021 25.894 121.753 25.894C122.257 25.894 122.701 25.822 123.085 25.678C123.481 25.522 123.847 25.282 124.183 24.958L125.677 26.578C124.765 27.622 123.433 28.144 121.681 28.144C120.589 28.144 119.623 27.934 118.783 27.514C117.943 27.082 117.295 26.488 116.839 25.732C116.383 24.976 116.155 24.118 116.155 23.158C116.155 22.21 116.377 21.358 116.821 20.602C117.277 19.834 117.895 19.24 118.675 18.82C119.467 18.388 120.349 18.172 121.321 18.172C122.269 18.172 123.127 18.376 123.895 18.784C124.663 19.192 125.263 19.78 125.695 20.548C126.139 21.304 126.361 22.186 126.361 23.194ZM121.339 20.296C120.703 20.296 120.169 20.476 119.737 20.836C119.305 21.196 119.041 21.688 118.945 22.312H123.715C123.619 21.7 123.355 21.214 122.923 20.854C122.491 20.482 121.963 20.296 121.339 20.296ZM59.7007 46.31C59.7007 47.294 59.3407 48.14 58.6207 48.848C57.9007 49.544 56.8627 49.976 55.5067 50.144V52.16H53.7067V50.198C52.8187 50.15 51.9727 49.994 51.1687 49.73C50.3647 49.466 49.7167 49.142 49.2247 48.758L50.2147 46.562C50.6707 46.898 51.2047 47.18 51.8167 47.408C52.4287 47.636 53.0587 47.78 53.7067 47.84V44.834C52.8547 44.63 52.1347 44.402 51.5467 44.15C50.9587 43.898 50.4667 43.532 50.0707 43.052C49.6747 42.56 49.4767 41.912 49.4767 41.108C49.4767 40.112 49.8367 39.26 50.5567 38.552C51.2887 37.832 52.3387 37.394 53.7067 37.238V35.24H55.5067V37.202C56.9827 37.322 58.2007 37.688 59.1607 38.3L58.2607 40.514C57.3607 39.998 56.4427 39.686 55.5067 39.578V42.638C56.3467 42.83 57.0547 43.052 57.6307 43.304C58.2187 43.544 58.7107 43.91 59.1067 44.402C59.5027 44.882 59.7007 45.518 59.7007 46.31ZM52.3747 40.964C52.3747 41.264 52.4887 41.51 52.7167 41.702C52.9447 41.894 53.2747 42.056 53.7067 42.188V39.632C53.2507 39.74 52.9147 39.914 52.6987 40.154C52.4827 40.382 52.3747 40.652 52.3747 40.964ZM55.5067 47.768C55.9387 47.672 56.2627 47.516 56.4787 47.3C56.6947 47.084 56.8027 46.826 56.8027 46.526C56.8027 46.226 56.6887 45.98 56.4607 45.788C56.2447 45.596 55.9267 45.428 55.5067 45.284V47.768ZM74.6209 43.376C75.2449 43.688 75.7189 44.096 76.0429 44.6C76.3789 45.104 76.5469 45.686 76.5469 46.346C76.5469 47.126 76.3249 47.81 75.8809 48.398C75.4369 48.974 74.8129 49.424 74.0089 49.748C73.2049 50.06 72.2749 50.216 71.2189 50.216C70.1629 50.216 69.2329 50.06 68.4289 49.748C67.6369 49.424 67.0189 48.974 66.5749 48.398C66.1429 47.81 65.9269 47.126 65.9269 46.346C65.9269 45.686 66.0889 45.104 66.4129 44.6C66.7489 44.096 67.2229 43.688 67.8349 43.376C67.3669 43.088 67.0069 42.728 66.7549 42.296C66.5029 41.852 66.3769 41.348 66.3769 40.784C66.3769 40.052 66.5809 39.416 66.9889 38.876C67.3969 38.336 67.9669 37.922 68.6989 37.634C69.4309 37.334 70.2709 37.184 71.2189 37.184C72.1789 37.184 73.0249 37.334 73.7569 37.634C74.5009 37.922 75.0769 38.336 75.4849 38.876C75.8929 39.416 76.0969 40.052 76.0969 40.784C76.0969 41.348 75.9709 41.852 75.7189 42.296C75.4669 42.728 75.1009 43.088 74.6209 43.376ZM71.2189 39.326C70.6309 39.326 70.1569 39.47 69.7969 39.758C69.4489 40.034 69.2749 40.418 69.2749 40.91C69.2749 41.39 69.4489 41.768 69.7969 42.044C70.1449 42.32 70.6189 42.458 71.2189 42.458C71.8189 42.458 72.2989 42.32 72.6589 42.044C73.0189 41.768 73.1989 41.39 73.1989 40.91C73.1989 40.418 73.0189 40.034 72.6589 39.758C72.2989 39.47 71.8189 39.326 71.2189 39.326ZM71.2189 48.074C71.9509 48.074 72.5269 47.912 72.9469 47.588C73.3789 47.252 73.5949 46.808 73.5949 46.256C73.5949 45.704 73.3789 45.266 72.9469 44.942C72.5269 44.618 71.9509 44.456 71.2189 44.456C70.4989 44.456 69.9289 44.618 69.5089 44.942C69.0889 45.266 68.8789 45.704 68.8789 46.256C68.8789 46.82 69.0889 47.264 69.5089 47.588C69.9289 47.912 70.4989 48.074 71.2189 48.074ZM86.5037 43.376C87.1277 43.688 87.6017 44.096 87.9257 44.6C88.2617 45.104 88.4297 45.686 88.4297 46.346C88.4297 47.126 88.2077 47.81 87.7637 48.398C87.3197 48.974 86.6957 49.424 85.8917 49.748C85.0877 50.06 84.1577 50.216 83.1017 50.216C82.0457 50.216 81.1157 50.06 80.3117 49.748C79.5197 49.424 78.9017 48.974 78.4577 48.398C78.0257 47.81 77.8097 47.126 77.8097 46.346C77.8097 45.686 77.9717 45.104 78.2957 44.6C78.6317 44.096 79.1057 43.688 79.7177 43.376C79.2497 43.088 78.8897 42.728 78.6377 42.296C78.3857 41.852 78.2597 41.348 78.2597 40.784C78.2597 40.052 78.4637 39.416 78.8717 38.876C79.2797 38.336 79.8497 37.922 80.5817 37.634C81.3137 37.334 82.1537 37.184 83.1017 37.184C84.0617 37.184 84.9077 37.334 85.6397 37.634C86.3837 37.922 86.9597 38.336 87.3677 38.876C87.7757 39.416 87.9797 40.052 87.9797 40.784C87.9797 41.348 87.8537 41.852 87.6017 42.296C87.3497 42.728 86.9837 43.088 86.5037 43.376ZM83.1017 39.326C82.5137 39.326 82.0397 39.47 81.6797 39.758C81.3317 40.034 81.1577 40.418 81.1577 40.91C81.1577 41.39 81.3317 41.768 81.6797 42.044C82.0277 42.32 82.5017 42.458 83.1017 42.458C83.7017 42.458 84.1817 42.32 84.5417 42.044C84.9017 41.768 85.0817 41.39 85.0817 40.91C85.0817 40.418 84.9017 40.034 84.5417 39.758C84.1817 39.47 83.7017 39.326 83.1017 39.326ZM83.1017 48.074C83.8337 48.074 84.4097 47.912 84.8297 47.588C85.2617 47.252 85.4777 46.808 85.4777 46.256C85.4777 45.704 85.2617 45.266 84.8297 44.942C84.4097 44.618 83.8337 44.456 83.1017 44.456C82.3817 44.456 81.8117 44.618 81.3917 44.942C80.9717 45.266 80.7617 45.704 80.7617 46.256C80.7617 46.82 80.9717 47.264 81.3917 47.588C81.8117 47.912 82.3817 48.074 83.1017 48.074ZM95.1645 50.216C94.1205 50.216 93.1905 49.958 92.3745 49.442C91.5585 48.926 90.9165 48.182 90.4485 47.21C89.9925 46.226 89.7645 45.056 89.7645 43.7C89.7645 42.344 89.9925 41.18 90.4485 40.208C90.9165 39.224 91.5585 38.474 92.3745 37.958C93.1905 37.442 94.1205 37.184 95.1645 37.184C96.2085 37.184 97.1385 37.442 97.9545 37.958C98.7705 38.474 99.4065 39.224 99.8625 40.208C100.331 41.18 100.564 42.344 100.564 43.7C100.564 45.056 100.331 46.226 99.8625 47.21C99.4065 48.182 98.7705 48.926 97.9545 49.442C97.1385 49.958 96.2085 50.216 95.1645 50.216ZM95.1645 47.75C95.9325 47.75 96.5325 47.42 96.9645 46.76C97.4085 46.1 97.6305 45.08 97.6305 43.7C97.6305 42.32 97.4085 41.3 96.9645 40.64C96.5325 39.98 95.9325 39.65 95.1645 39.65C94.4085 39.65 93.8085 39.98 93.3645 40.64C92.9325 41.3 92.7165 42.32 92.7165 43.7C92.7165 45.08 92.9325 46.1 93.3645 46.76C93.8085 47.42 94.4085 47.75 95.1645 47.75Z" transform="translate(6 41)" fill="white"/>
<defs>
<filter id="filter0_d" x="0" y="0" width="174" height="218.5" filterUnits="userSpaceOnUse" color-interpolation-filters="sRGB">
<feFlood flood-opacity="0" result="BackgroundImageFix"/>
<feColorMatrix in="SourceAlpha" type="matrix" values="0 0 0 0 0 0 0 0 0 0 0 0 0 0 0 0 0 0 255 0"/>
<feOffset dx="6" dy="12"/>
<feGaussianBlur stdDeviation="6"/>
<feColorMatrix type="matrix" values="0 0 0 0 0.376471 0 0 0 0 0.737255 0 0 0 0 1 0 0 0 0.5 0"/>
<feBlend mode="normal" in2="BackgroundImageFix" result="effect1_dropShadow"/>
<feBlend mode="normal" in="SourceGraphic" in2="effect1_dropShadow" result="shape"/>
</filter>
</defs>
</svg>
